<mxfile host="www.draw.io" modified="2019-11-09T23:53:24.161Z" agent="Mozilla/5.0 (Macintosh; Intel Mac OS X 10_14_3) AppleWebKit/537.36 (KHTML, like Gecko) Chrome/78.0.3904.70 Safari/537.36" etag="fYaH1d45e02jm2Ldzyzi" version="12.2.3" type="github" pages="1">
  <diagram id="QiQiLYxMduNQmKiCAKLc" name="Page-1">
    <mxGraphModel dx="1224" dy="472" grid="1" gridSize="10" guides="1" tooltips="1" connect="1" arrows="1" fold="1" page="1" pageScale="1" pageWidth="850" pageHeight="1100" math="0" shadow="0">
      <root>
        <mxCell id="0"/>
        <mxCell id="1" parent="0"/>
        <mxCell id="4XJdXeNywAw_VT-kagqD-26" value="" style="rounded=1;whiteSpace=wrap;html=1;fillColor=#f5f5f5;strokeColor=#666666;fontColor=#333333;" vertex="1" parent="1">
          <mxGeometry x="40" y="235" width="770" height="280" as="geometry"/>
        </mxCell>
        <mxCell id="4XJdXeNywAw_VT-kagqD-1" value="&lt;div&gt;&lt;b&gt;&lt;font style=&quot;font-size: 16px&quot;&gt;4) BONUS&lt;/font&gt;&lt;/b&gt;&lt;/div&gt;" style="text;html=1;resizable=0;points=[];autosize=1;align=center;verticalAlign=top;spacingTop=-4;" vertex="1" parent="1">
          <mxGeometry x="40" y="40" width="90" height="20" as="geometry"/>
        </mxCell>
        <mxCell id="4XJdXeNywAw_VT-kagqD-7" style="rounded=0;orthogonalLoop=1;jettySize=auto;html=1;exitX=1;exitY=0.5;exitDx=0;exitDy=0;entryX=0;entryY=0.5;entryDx=0;entryDy=0;strokeWidth=2;endArrow=none;endFill=0;" edge="1" parent="1" source="4XJdXeNywAw_VT-kagqD-2" target="4XJdXeNywAw_VT-kagqD-5">
          <mxGeometry relative="1" as="geometry"/>
        </mxCell>
        <mxCell id="4XJdXeNywAw_VT-kagqD-9" style="edgeStyle=none;rounded=0;orthogonalLoop=1;jettySize=auto;html=1;exitX=1;exitY=0.5;exitDx=0;exitDy=0;entryX=0;entryY=0.5;entryDx=0;entryDy=0;strokeWidth=2;endArrow=none;endFill=0;" edge="1" parent="1" source="4XJdXeNywAw_VT-kagqD-2" target="4XJdXeNywAw_VT-kagqD-6">
          <mxGeometry relative="1" as="geometry"/>
        </mxCell>
        <mxCell id="4XJdXeNywAw_VT-kagqD-2" value="&lt;b&gt;&lt;font style=&quot;font-size: 15px&quot;&gt;1&lt;/font&gt;&lt;/b&gt;" style="ellipse;whiteSpace=wrap;html=1;aspect=fixed;fillColor=#dae8fc;strokeColor=#6c8ebf;" vertex="1" parent="1">
          <mxGeometry x="85" y="275" width="60" height="60" as="geometry"/>
        </mxCell>
        <mxCell id="4XJdXeNywAw_VT-kagqD-10" style="edgeStyle=none;rounded=0;orthogonalLoop=1;jettySize=auto;html=1;exitX=1;exitY=0.5;exitDx=0;exitDy=0;entryX=0;entryY=0.5;entryDx=0;entryDy=0;strokeWidth=2;endArrow=none;endFill=0;" edge="1" parent="1" source="4XJdXeNywAw_VT-kagqD-3" target="4XJdXeNywAw_VT-kagqD-6">
          <mxGeometry relative="1" as="geometry"/>
        </mxCell>
        <mxCell id="4XJdXeNywAw_VT-kagqD-11" style="edgeStyle=none;rounded=0;orthogonalLoop=1;jettySize=auto;html=1;exitX=1;exitY=0.5;exitDx=0;exitDy=0;entryX=0;entryY=0.5;entryDx=0;entryDy=0;strokeWidth=2;endArrow=none;endFill=0;" edge="1" parent="1" source="4XJdXeNywAw_VT-kagqD-3" target="4XJdXeNywAw_VT-kagqD-5">
          <mxGeometry relative="1" as="geometry"/>
        </mxCell>
        <mxCell id="4XJdXeNywAw_VT-kagqD-3" value="&lt;span style=&quot;font-size: 15px&quot;&gt;&lt;b&gt;2&lt;/b&gt;&lt;/span&gt;" style="ellipse;whiteSpace=wrap;html=1;aspect=fixed;fillColor=#f8cecc;strokeColor=#b85450;" vertex="1" parent="1">
          <mxGeometry x="85" y="395" width="60" height="60" as="geometry"/>
        </mxCell>
        <mxCell id="4XJdXeNywAw_VT-kagqD-5" value="&lt;span style=&quot;font-size: 15px&quot;&gt;&lt;b&gt;A&lt;/b&gt;&lt;/span&gt;" style="ellipse;whiteSpace=wrap;html=1;aspect=fixed;fillColor=#d5e8d4;strokeColor=#82b366;" vertex="1" parent="1">
          <mxGeometry x="245" y="275" width="60" height="60" as="geometry"/>
        </mxCell>
        <mxCell id="4XJdXeNywAw_VT-kagqD-6" value="&lt;span style=&quot;font-size: 15px&quot;&gt;&lt;b&gt;B&lt;/b&gt;&lt;/span&gt;" style="ellipse;whiteSpace=wrap;html=1;aspect=fixed;fillColor=#e1d5e7;strokeColor=#9673a6;" vertex="1" parent="1">
          <mxGeometry x="245" y="395" width="60" height="60" as="geometry"/>
        </mxCell>
        <mxCell id="4XJdXeNywAw_VT-kagqD-21" style="edgeStyle=none;rounded=0;orthogonalLoop=1;jettySize=auto;html=1;exitX=1;exitY=0;exitDx=0;exitDy=0;entryX=0;entryY=0.5;entryDx=0;entryDy=0;endArrow=none;endFill=0;strokeWidth=2;" edge="1" parent="1" source="4XJdXeNywAw_VT-kagqD-14" target="4XJdXeNywAw_VT-kagqD-18">
          <mxGeometry relative="1" as="geometry"/>
        </mxCell>
        <mxCell id="4XJdXeNywAw_VT-kagqD-22" style="edgeStyle=none;rounded=0;orthogonalLoop=1;jettySize=auto;html=1;exitX=0.5;exitY=1;exitDx=0;exitDy=0;entryX=0;entryY=0;entryDx=0;entryDy=0;endArrow=none;endFill=0;strokeWidth=2;" edge="1" parent="1" source="4XJdXeNywAw_VT-kagqD-14" target="4XJdXeNywAw_VT-kagqD-19">
          <mxGeometry relative="1" as="geometry"/>
        </mxCell>
        <mxCell id="4XJdXeNywAw_VT-kagqD-14" value="&lt;b&gt;&lt;font style=&quot;font-size: 15px&quot;&gt;1&lt;/font&gt;&lt;/b&gt;" style="ellipse;whiteSpace=wrap;html=1;aspect=fixed;fillColor=#dae8fc;strokeColor=#6c8ebf;" vertex="1" parent="1">
          <mxGeometry x="435" y="275" width="60" height="60" as="geometry"/>
        </mxCell>
        <mxCell id="4XJdXeNywAw_VT-kagqD-17" value="&lt;span style=&quot;font-size: 15px&quot;&gt;&lt;b&gt;2&lt;/b&gt;&lt;/span&gt;" style="ellipse;whiteSpace=wrap;html=1;aspect=fixed;fillColor=#f8cecc;strokeColor=#b85450;" vertex="1" parent="1">
          <mxGeometry x="705" y="365" width="60" height="60" as="geometry"/>
        </mxCell>
        <mxCell id="4XJdXeNywAw_VT-kagqD-24" style="edgeStyle=none;rounded=0;orthogonalLoop=1;jettySize=auto;html=1;exitX=1;exitY=0.5;exitDx=0;exitDy=0;entryX=0.5;entryY=0;entryDx=0;entryDy=0;endArrow=none;endFill=0;strokeWidth=2;" edge="1" parent="1" source="4XJdXeNywAw_VT-kagqD-18" target="4XJdXeNywAw_VT-kagqD-17">
          <mxGeometry relative="1" as="geometry"/>
        </mxCell>
        <mxCell id="4XJdXeNywAw_VT-kagqD-18" value="&lt;span style=&quot;font-size: 15px&quot;&gt;&lt;b&gt;A&lt;/b&gt;&lt;/span&gt;" style="ellipse;whiteSpace=wrap;html=1;aspect=fixed;fillColor=#d5e8d4;strokeColor=#82b366;" vertex="1" parent="1">
          <mxGeometry x="585" y="245" width="60" height="60" as="geometry"/>
        </mxCell>
        <mxCell id="4XJdXeNywAw_VT-kagqD-23" style="edgeStyle=none;rounded=0;orthogonalLoop=1;jettySize=auto;html=1;exitX=1;exitY=0.5;exitDx=0;exitDy=0;entryX=0;entryY=1;entryDx=0;entryDy=0;endArrow=none;endFill=0;strokeWidth=2;" edge="1" parent="1" source="4XJdXeNywAw_VT-kagqD-19" target="4XJdXeNywAw_VT-kagqD-17">
          <mxGeometry relative="1" as="geometry"/>
        </mxCell>
        <mxCell id="4XJdXeNywAw_VT-kagqD-19" value="&lt;span style=&quot;font-size: 15px&quot;&gt;&lt;b&gt;B&lt;/b&gt;&lt;/span&gt;" style="ellipse;whiteSpace=wrap;html=1;aspect=fixed;fillColor=#e1d5e7;strokeColor=#9673a6;" vertex="1" parent="1">
          <mxGeometry x="545" y="395" width="60" height="60" as="geometry"/>
        </mxCell>
        <mxCell id="4XJdXeNywAw_VT-kagqD-25" value="" style="curved=1;endArrow=classic;html=1;strokeWidth=2;" edge="1" parent="1">
          <mxGeometry width="50" height="50" relative="1" as="geometry">
            <mxPoint x="585" y="375" as="sourcePoint"/>
            <mxPoint x="565" y="365" as="targetPoint"/>
            <Array as="points">
              <mxPoint x="625" y="395"/>
              <mxPoint x="675" y="375"/>
              <mxPoint x="685" y="335"/>
              <mxPoint x="545" y="295"/>
              <mxPoint x="505" y="325"/>
              <mxPoint x="555" y="355"/>
            </Array>
          </mxGeometry>
        </mxCell>
        <mxCell id="4XJdXeNywAw_VT-kagqD-29" value="&lt;font style=&quot;font-size: 13px&quot;&gt;BIPARTITE GRAPH&lt;br&gt;WITH EVEN CYCLE&lt;/font&gt;" style="rounded=1;whiteSpace=wrap;html=1;" vertex="1" parent="1">
          <mxGeometry x="365" y="435" width="120" height="60" as="geometry"/>
        </mxCell>
        <mxCell id="4XJdXeNywAw_VT-kagqD-30" value="" style="rounded=1;whiteSpace=wrap;html=1;fillColor=#f5f5f5;strokeColor=#666666;fontColor=#333333;" vertex="1" parent="1">
          <mxGeometry x="40" y="585" width="770" height="280" as="geometry"/>
        </mxCell>
        <mxCell id="4XJdXeNywAw_VT-kagqD-31" style="rounded=0;orthogonalLoop=1;jettySize=auto;html=1;exitX=1;exitY=0.5;exitDx=0;exitDy=0;entryX=0;entryY=0.5;entryDx=0;entryDy=0;strokeWidth=2;endArrow=none;endFill=0;" edge="1" parent="1" source="4XJdXeNywAw_VT-kagqD-33" target="4XJdXeNywAw_VT-kagqD-37">
          <mxGeometry relative="1" as="geometry"/>
        </mxCell>
        <mxCell id="4XJdXeNywAw_VT-kagqD-32" style="edgeStyle=none;rounded=0;orthogonalLoop=1;jettySize=auto;html=1;exitX=1;exitY=0.5;exitDx=0;exitDy=0;entryX=0;entryY=0.5;entryDx=0;entryDy=0;strokeWidth=2;endArrow=none;endFill=0;" edge="1" parent="1" source="4XJdXeNywAw_VT-kagqD-33" target="4XJdXeNywAw_VT-kagqD-38">
          <mxGeometry relative="1" as="geometry"/>
        </mxCell>
        <mxCell id="4XJdXeNywAw_VT-kagqD-33" value="&lt;b&gt;&lt;font style=&quot;font-size: 15px&quot;&gt;1&lt;/font&gt;&lt;/b&gt;" style="ellipse;whiteSpace=wrap;html=1;aspect=fixed;fillColor=#dae8fc;strokeColor=#6c8ebf;" vertex="1" parent="1">
          <mxGeometry x="85" y="625" width="60" height="60" as="geometry"/>
        </mxCell>
        <mxCell id="4XJdXeNywAw_VT-kagqD-34" style="edgeStyle=none;rounded=0;orthogonalLoop=1;jettySize=auto;html=1;exitX=1;exitY=0.5;exitDx=0;exitDy=0;entryX=0;entryY=0.5;entryDx=0;entryDy=0;strokeWidth=2;endArrow=none;endFill=0;" edge="1" parent="1" source="4XJdXeNywAw_VT-kagqD-36" target="4XJdXeNywAw_VT-kagqD-38">
          <mxGeometry relative="1" as="geometry"/>
        </mxCell>
        <mxCell id="4XJdXeNywAw_VT-kagqD-35" style="edgeStyle=none;rounded=0;orthogonalLoop=1;jettySize=auto;html=1;exitX=1;exitY=0.5;exitDx=0;exitDy=0;entryX=0;entryY=0.5;entryDx=0;entryDy=0;strokeWidth=2;endArrow=none;endFill=0;" edge="1" parent="1" source="4XJdXeNywAw_VT-kagqD-36" target="4XJdXeNywAw_VT-kagqD-37">
          <mxGeometry relative="1" as="geometry"/>
        </mxCell>
        <mxCell id="4XJdXeNywAw_VT-kagqD-36" value="&lt;span style=&quot;font-size: 15px&quot;&gt;&lt;b&gt;2&lt;/b&gt;&lt;/span&gt;" style="ellipse;whiteSpace=wrap;html=1;aspect=fixed;fillColor=#f8cecc;strokeColor=#b85450;" vertex="1" parent="1">
          <mxGeometry x="85" y="745" width="60" height="60" as="geometry"/>
        </mxCell>
        <mxCell id="4XJdXeNywAw_VT-kagqD-37" value="&lt;span style=&quot;font-size: 15px&quot;&gt;&lt;b&gt;A&lt;/b&gt;&lt;/span&gt;" style="ellipse;whiteSpace=wrap;html=1;aspect=fixed;fillColor=#d5e8d4;strokeColor=#82b366;" vertex="1" parent="1">
          <mxGeometry x="245" y="625" width="60" height="60" as="geometry"/>
        </mxCell>
        <mxCell id="4XJdXeNywAw_VT-kagqD-58" style="edgeStyle=none;rounded=0;orthogonalLoop=1;jettySize=auto;html=1;exitX=0.5;exitY=0;exitDx=0;exitDy=0;entryX=0.5;entryY=1;entryDx=0;entryDy=0;endArrow=none;endFill=0;strokeWidth=2;" edge="1" parent="1" source="4XJdXeNywAw_VT-kagqD-38" target="4XJdXeNywAw_VT-kagqD-37">
          <mxGeometry relative="1" as="geometry"/>
        </mxCell>
        <mxCell id="4XJdXeNywAw_VT-kagqD-38" value="&lt;span style=&quot;font-size: 15px&quot;&gt;&lt;b&gt;B&lt;/b&gt;&lt;/span&gt;" style="ellipse;whiteSpace=wrap;html=1;aspect=fixed;fillColor=#e1d5e7;strokeColor=#9673a6;" vertex="1" parent="1">
          <mxGeometry x="245" y="745" width="60" height="60" as="geometry"/>
        </mxCell>
        <mxCell id="4XJdXeNywAw_VT-kagqD-39" style="edgeStyle=none;rounded=0;orthogonalLoop=1;jettySize=auto;html=1;exitX=1;exitY=0;exitDx=0;exitDy=0;entryX=0;entryY=0.5;entryDx=0;entryDy=0;endArrow=none;endFill=0;strokeWidth=2;" edge="1" parent="1" source="4XJdXeNywAw_VT-kagqD-41" target="4XJdXeNywAw_VT-kagqD-44">
          <mxGeometry relative="1" as="geometry"/>
        </mxCell>
        <mxCell id="4XJdXeNywAw_VT-kagqD-40" style="edgeStyle=none;rounded=0;orthogonalLoop=1;jettySize=auto;html=1;exitX=0.5;exitY=1;exitDx=0;exitDy=0;entryX=0;entryY=0;entryDx=0;entryDy=0;endArrow=none;endFill=0;strokeWidth=2;" edge="1" parent="1" source="4XJdXeNywAw_VT-kagqD-41" target="4XJdXeNywAw_VT-kagqD-46">
          <mxGeometry relative="1" as="geometry"/>
        </mxCell>
        <mxCell id="4XJdXeNywAw_VT-kagqD-41" value="&lt;b&gt;&lt;font style=&quot;font-size: 15px&quot;&gt;1&lt;/font&gt;&lt;/b&gt;" style="ellipse;whiteSpace=wrap;html=1;aspect=fixed;fillColor=#dae8fc;strokeColor=#6c8ebf;" vertex="1" parent="1">
          <mxGeometry x="435" y="625" width="60" height="60" as="geometry"/>
        </mxCell>
        <mxCell id="4XJdXeNywAw_VT-kagqD-42" value="&lt;span style=&quot;font-size: 15px&quot;&gt;&lt;b&gt;2&lt;/b&gt;&lt;/span&gt;" style="ellipse;whiteSpace=wrap;html=1;aspect=fixed;fillColor=#f8cecc;strokeColor=#b85450;" vertex="1" parent="1">
          <mxGeometry x="705" y="715" width="60" height="60" as="geometry"/>
        </mxCell>
        <mxCell id="4XJdXeNywAw_VT-kagqD-43" style="edgeStyle=none;rounded=0;orthogonalLoop=1;jettySize=auto;html=1;exitX=1;exitY=0.5;exitDx=0;exitDy=0;entryX=0.5;entryY=0;entryDx=0;entryDy=0;endArrow=none;endFill=0;strokeWidth=2;" edge="1" parent="1" source="4XJdXeNywAw_VT-kagqD-44" target="4XJdXeNywAw_VT-kagqD-42">
          <mxGeometry relative="1" as="geometry"/>
        </mxCell>
        <mxCell id="4XJdXeNywAw_VT-kagqD-52" style="edgeStyle=none;rounded=0;orthogonalLoop=1;jettySize=auto;html=1;exitX=0.5;exitY=1;exitDx=0;exitDy=0;entryX=1;entryY=0;entryDx=0;entryDy=0;endArrow=none;endFill=0;strokeWidth=2;" edge="1" parent="1" source="4XJdXeNywAw_VT-kagqD-44" target="4XJdXeNywAw_VT-kagqD-46">
          <mxGeometry relative="1" as="geometry"/>
        </mxCell>
        <mxCell id="4XJdXeNywAw_VT-kagqD-44" value="&lt;span style=&quot;font-size: 15px&quot;&gt;&lt;b&gt;A&lt;/b&gt;&lt;/span&gt;" style="ellipse;whiteSpace=wrap;html=1;aspect=fixed;fillColor=#d5e8d4;strokeColor=#82b366;" vertex="1" parent="1">
          <mxGeometry x="585" y="595" width="60" height="60" as="geometry"/>
        </mxCell>
        <mxCell id="4XJdXeNywAw_VT-kagqD-45" style="edgeStyle=none;rounded=0;orthogonalLoop=1;jettySize=auto;html=1;exitX=1;exitY=0.5;exitDx=0;exitDy=0;entryX=0;entryY=1;entryDx=0;entryDy=0;endArrow=none;endFill=0;strokeWidth=2;" edge="1" parent="1" source="4XJdXeNywAw_VT-kagqD-46" target="4XJdXeNywAw_VT-kagqD-42">
          <mxGeometry relative="1" as="geometry"/>
        </mxCell>
        <mxCell id="4XJdXeNywAw_VT-kagqD-46" value="&lt;span style=&quot;font-size: 15px&quot;&gt;&lt;b&gt;B&lt;/b&gt;&lt;/span&gt;" style="ellipse;whiteSpace=wrap;html=1;aspect=fixed;fillColor=#e1d5e7;strokeColor=#9673a6;" vertex="1" parent="1">
          <mxGeometry x="545" y="745" width="60" height="60" as="geometry"/>
        </mxCell>
        <mxCell id="4XJdXeNywAw_VT-kagqD-48" value="&lt;font style=&quot;font-size: 13px&quot;&gt;GRAPH&lt;br&gt;WITH ODD CYCLE&lt;/font&gt;" style="rounded=1;whiteSpace=wrap;html=1;" vertex="1" parent="1">
          <mxGeometry x="365" y="785" width="120" height="60" as="geometry"/>
        </mxCell>
        <mxCell id="4XJdXeNywAw_VT-kagqD-49" value="&lt;font style=&quot;font-size: 13px&quot;&gt;2 CYCLES WITH&lt;br&gt;3 EGDES EACH&lt;br&gt;&lt;/font&gt;" style="rounded=1;whiteSpace=wrap;html=1;" vertex="1" parent="1">
          <mxGeometry x="615" y="785" width="120" height="60" as="geometry"/>
        </mxCell>
        <mxCell id="4XJdXeNywAw_VT-kagqD-50" value="&lt;font style=&quot;font-size: 13px&quot;&gt;4 EDGES ON CYCLE&lt;/font&gt;" style="rounded=1;whiteSpace=wrap;html=1;" vertex="1" parent="1">
          <mxGeometry x="615" y="436" width="120" height="60" as="geometry"/>
        </mxCell>
        <mxCell id="4XJdXeNywAw_VT-kagqD-53" value="" style="curved=1;endArrow=classic;html=1;strokeWidth=2;" edge="1" parent="1">
          <mxGeometry width="50" height="50" relative="1" as="geometry">
            <mxPoint x="570" y="715" as="sourcePoint"/>
            <mxPoint x="580" y="705" as="targetPoint"/>
            <Array as="points">
              <mxPoint x="550" y="735"/>
              <mxPoint x="520" y="705"/>
              <mxPoint x="490" y="645"/>
              <mxPoint x="585" y="645"/>
              <mxPoint x="600" y="665"/>
            </Array>
          </mxGeometry>
        </mxCell>
        <mxCell id="4XJdXeNywAw_VT-kagqD-57" value="" style="curved=1;endArrow=classic;html=1;strokeWidth=2;exitX=0.753;exitY=0.536;exitDx=0;exitDy=0;exitPerimeter=0;" edge="1" parent="1" source="4XJdXeNywAw_VT-kagqD-30">
          <mxGeometry width="50" height="50" relative="1" as="geometry">
            <mxPoint x="620" y="755" as="sourcePoint"/>
            <mxPoint x="620" y="725" as="targetPoint"/>
            <Array as="points">
              <mxPoint x="620" y="765"/>
              <mxPoint x="670" y="755"/>
              <mxPoint x="720" y="725"/>
              <mxPoint x="670" y="655"/>
              <mxPoint x="630" y="665"/>
              <mxPoint x="620" y="705"/>
            </Array>
          </mxGeometry>
        </mxCell>
        <mxCell id="4XJdXeNywAw_VT-kagqD-59" value="" style="shape=flexArrow;endArrow=classic;html=1;strokeWidth=2;" edge="1" parent="1">
          <mxGeometry width="50" height="50" relative="1" as="geometry">
            <mxPoint x="397.5" y="695" as="sourcePoint"/>
            <mxPoint x="332.5" y="695" as="targetPoint"/>
          </mxGeometry>
        </mxCell>
        <mxCell id="4XJdXeNywAw_VT-kagqD-60" value="&lt;b&gt;NOT A BIPARTITE&lt;br&gt;GRAPH&lt;/b&gt;" style="text;html=1;resizable=0;points=[];autosize=1;align=center;verticalAlign=top;spacingTop=-4;" vertex="1" parent="1">
          <mxGeometry x="305" y="715" width="120" height="30" as="geometry"/>
        </mxCell>
      </root>
    </mxGraphModel>
  </diagram>
</mxfile>
